<mxfile host="app.diagrams.net" modified="2023-08-31T22:24:02.932Z" agent="Mozilla/5.0 (Windows NT 10.0; Win64; x64) AppleWebKit/537.36 (KHTML, like Gecko) Chrome/104.0.0.0 Safari/537.36" etag="F5048MPbdkPQDv7Set-M" version="21.7.1" type="google">
  <diagram name="Página-1" id="7RRLshy43I1ARh4z3GRz">
    <mxGraphModel grid="1" page="1" gridSize="10" guides="1" tooltips="1" connect="1" arrows="1" fold="1" pageScale="1" pageWidth="827" pageHeight="1169" background="#FFFFFF" math="0" shadow="0">
      <root>
        <mxCell id="0" />
        <mxCell id="1" parent="0" />
        <mxCell id="QcYheAJvlHMiwgrauYPP-4" value="Modelagem Sprint 2" style="swimlane;childLayout=stackLayout;resizeParent=1;resizeParentMax=0;horizontal=1;startSize=20;horizontalStack=0;html=1;" vertex="1" parent="1">
          <mxGeometry x="110" y="-680" width="1690" height="769" as="geometry">
            <mxRectangle x="20" y="70" width="70" height="30" as="alternateBounds" />
          </mxGeometry>
        </mxCell>
        <mxCell id="QcYheAJvlHMiwgrauYPP-5" value="&lt;font&gt;Vendedor&lt;br&gt;&lt;br&gt;&lt;/font&gt;" style="swimlane;startSize=20;horizontal=0;html=1;" vertex="1" parent="QcYheAJvlHMiwgrauYPP-4">
          <mxGeometry y="20" width="1690" height="749" as="geometry" />
        </mxCell>
        <mxCell id="aA3nxDWy53k3BgQftQap-38" value="" style="edgeStyle=orthogonalEdgeStyle;rounded=0;orthogonalLoop=1;jettySize=auto;html=1;entryX=0;entryY=0.5;entryDx=0;entryDy=0;" edge="1" parent="QcYheAJvlHMiwgrauYPP-5" source="QcYheAJvlHMiwgrauYPP-1" target="aA3nxDWy53k3BgQftQap-1">
          <mxGeometry relative="1" as="geometry" />
        </mxCell>
        <mxCell id="QcYheAJvlHMiwgrauYPP-1" value="Fazer cadastro (Nome, CPF, Telefone, Endereço, Senha, Email, Pix)" style="rounded=1;whiteSpace=wrap;html=1;" vertex="1" parent="QcYheAJvlHMiwgrauYPP-5">
          <mxGeometry x="450" y="70" width="130" height="60" as="geometry" />
        </mxCell>
        <mxCell id="G0I-At-CtuhnhPBTe-EC-16" style="edgeStyle=orthogonalEdgeStyle;rounded=0;orthogonalLoop=1;jettySize=auto;html=1;exitX=1;exitY=0.5;exitDx=0;exitDy=0;exitPerimeter=0;" edge="1" parent="QcYheAJvlHMiwgrauYPP-5" source="QcYheAJvlHMiwgrauYPP-3">
          <mxGeometry relative="1" as="geometry">
            <mxPoint x="260" y="100" as="targetPoint" />
          </mxGeometry>
        </mxCell>
        <mxCell id="QcYheAJvlHMiwgrauYPP-3" value="" style="strokeWidth=2;html=1;shape=mxgraph.flowchart.start_2;whiteSpace=wrap;strokeColor=#00CC00;" vertex="1" parent="QcYheAJvlHMiwgrauYPP-5">
          <mxGeometry x="100" y="75" width="50" height="50" as="geometry" />
        </mxCell>
        <mxCell id="NOd3RORWe2ZAU6HiwM3_-14" value="" style="endArrow=classic;html=1;rounded=0;entryX=0;entryY=0.5;entryDx=0;entryDy=0;exitX=1;exitY=0.5;exitDx=0;exitDy=0;" edge="1" parent="QcYheAJvlHMiwgrauYPP-5" source="sDPe8l35opI0_8zUpnqD-15" target="QcYheAJvlHMiwgrauYPP-1">
          <mxGeometry width="50" height="50" relative="1" as="geometry">
            <mxPoint x="370" y="100" as="sourcePoint" />
            <mxPoint x="345.5" y="165" as="targetPoint" />
          </mxGeometry>
        </mxCell>
        <mxCell id="XHQlC-V_Jws_UmB_GzIY-36" value="Nao" style="edgeLabel;html=1;align=center;verticalAlign=middle;resizable=0;points=[];" connectable="0" vertex="1" parent="NOd3RORWe2ZAU6HiwM3_-14">
          <mxGeometry x="-0.3074" relative="1" as="geometry">
            <mxPoint x="-1" as="offset" />
          </mxGeometry>
        </mxCell>
        <mxCell id="aA3nxDWy53k3BgQftQap-39" value="" style="edgeStyle=orthogonalEdgeStyle;rounded=0;orthogonalLoop=1;jettySize=auto;html=1;" edge="1" parent="QcYheAJvlHMiwgrauYPP-5" source="aA3nxDWy53k3BgQftQap-1" target="sDPe8l35opI0_8zUpnqD-7">
          <mxGeometry relative="1" as="geometry" />
        </mxCell>
        <mxCell id="aA3nxDWy53k3BgQftQap-1" value="Realizar Login (Email e Senha)" style="rounded=1;whiteSpace=wrap;html=1;" vertex="1" parent="QcYheAJvlHMiwgrauYPP-5">
          <mxGeometry x="620" y="70" width="130" height="60" as="geometry" />
        </mxCell>
        <mxCell id="aA3nxDWy53k3BgQftQap-42" value="" style="edgeStyle=orthogonalEdgeStyle;rounded=0;orthogonalLoop=1;jettySize=auto;html=1;" edge="1" parent="QcYheAJvlHMiwgrauYPP-5" source="sDPe8l35opI0_8zUpnqD-7" target="sDPe8l35opI0_8zUpnqD-13">
          <mxGeometry relative="1" as="geometry" />
        </mxCell>
        <mxCell id="sDPe8l35opI0_8zUpnqD-7" value="Acessar pagina de postagem de ingressos" style="rounded=1;whiteSpace=wrap;html=1;" vertex="1" parent="QcYheAJvlHMiwgrauYPP-5">
          <mxGeometry x="800" y="70" width="120" height="60" as="geometry" />
        </mxCell>
        <mxCell id="aA3nxDWy53k3BgQftQap-23" value="" style="edgeStyle=orthogonalEdgeStyle;rounded=0;orthogonalLoop=1;jettySize=auto;html=1;entryX=0;entryY=0.5;entryDx=0;entryDy=0;" edge="1" parent="QcYheAJvlHMiwgrauYPP-5" source="sDPe8l35opI0_8zUpnqD-13" target="aA3nxDWy53k3BgQftQap-6">
          <mxGeometry relative="1" as="geometry" />
        </mxCell>
        <mxCell id="sDPe8l35opI0_8zUpnqD-13" value="Postagem do ingresso" style="rounded=1;whiteSpace=wrap;html=1;" vertex="1" parent="QcYheAJvlHMiwgrauYPP-5">
          <mxGeometry x="960" y="70" width="120" height="60" as="geometry" />
        </mxCell>
        <mxCell id="aA3nxDWy53k3BgQftQap-60" value="" style="edgeStyle=orthogonalEdgeStyle;rounded=0;orthogonalLoop=1;jettySize=auto;html=1;entryX=0;entryY=0.5;entryDx=0;entryDy=0;" edge="1" parent="QcYheAJvlHMiwgrauYPP-5" source="sDPe8l35opI0_8zUpnqD-14" target="G0I-At-CtuhnhPBTe-EC-31">
          <mxGeometry relative="1" as="geometry" />
        </mxCell>
        <mxCell id="sDPe8l35opI0_8zUpnqD-14" value="Comissão de 5% para a paltaforma" style="rounded=1;whiteSpace=wrap;html=1;" vertex="1" parent="QcYheAJvlHMiwgrauYPP-5">
          <mxGeometry x="1290" y="70" width="120" height="60" as="geometry" />
        </mxCell>
        <mxCell id="aA3nxDWy53k3BgQftQap-12" value="Ingresso vendido?" style="text;html=1;strokeColor=none;fillColor=none;align=center;verticalAlign=middle;whiteSpace=wrap;rounded=0;" vertex="1" parent="QcYheAJvlHMiwgrauYPP-5">
          <mxGeometry x="1113.5" y="52" width="93" height="34" as="geometry" />
        </mxCell>
        <mxCell id="aA3nxDWy53k3BgQftQap-24" value="" style="edgeStyle=orthogonalEdgeStyle;rounded=0;orthogonalLoop=1;jettySize=auto;html=1;" edge="1" parent="QcYheAJvlHMiwgrauYPP-5" source="aA3nxDWy53k3BgQftQap-6" target="sDPe8l35opI0_8zUpnqD-14">
          <mxGeometry relative="1" as="geometry" />
        </mxCell>
        <mxCell id="XHQlC-V_Jws_UmB_GzIY-80" value="Sim" style="edgeLabel;html=1;align=center;verticalAlign=middle;resizable=0;points=[];" vertex="1" connectable="0" parent="aA3nxDWy53k3BgQftQap-24">
          <mxGeometry x="-0.0174" y="-1" relative="1" as="geometry">
            <mxPoint x="-1" as="offset" />
          </mxGeometry>
        </mxCell>
        <mxCell id="sDPe8l35opI0_8zUpnqD-15" value="" style="rhombus;whiteSpace=wrap;html=1;" vertex="1" parent="QcYheAJvlHMiwgrauYPP-5">
          <mxGeometry x="260.5" y="85" width="30" height="30" as="geometry" />
        </mxCell>
        <mxCell id="NOd3RORWe2ZAU6HiwM3_-22" value="" style="shape=cross;whiteSpace=wrap;html=1;size=0;rotation=-45;" vertex="1" parent="QcYheAJvlHMiwgrauYPP-5">
          <mxGeometry x="265.03" y="89.88" width="20" height="19.31" as="geometry" />
        </mxCell>
        <mxCell id="aA3nxDWy53k3BgQftQap-6" value="" style="rhombus;whiteSpace=wrap;html=1;" vertex="1" parent="QcYheAJvlHMiwgrauYPP-5">
          <mxGeometry x="1146" y="85" width="30" height="30" as="geometry" />
        </mxCell>
        <mxCell id="G0I-At-CtuhnhPBTe-EC-12" style="edgeStyle=orthogonalEdgeStyle;rounded=0;orthogonalLoop=1;jettySize=auto;html=1;exitX=0;exitY=0.5;exitDx=0;exitDy=0;entryX=0.5;entryY=1;entryDx=0;entryDy=0;" edge="1" parent="QcYheAJvlHMiwgrauYPP-5" source="aA3nxDWy53k3BgQftQap-44" target="sDPe8l35opI0_8zUpnqD-13">
          <mxGeometry relative="1" as="geometry">
            <mxPoint x="1000" y="200" as="targetPoint" />
          </mxGeometry>
        </mxCell>
        <mxCell id="aA3nxDWy53k3BgQftQap-44" value="Ajustar o preço do ingresso" style="rounded=1;whiteSpace=wrap;html=1;" vertex="1" parent="QcYheAJvlHMiwgrauYPP-5">
          <mxGeometry x="1101" y="170.31" width="120" height="60" as="geometry" />
        </mxCell>
        <mxCell id="XHQlC-V_Jws_UmB_GzIY-38" value="" style="endArrow=classic;html=1;rounded=0;entryX=0.5;entryY=0;entryDx=0;entryDy=0;exitX=0.5;exitY=0;exitDx=0;exitDy=0;" edge="1" parent="QcYheAJvlHMiwgrauYPP-5" source="sDPe8l35opI0_8zUpnqD-15" target="aA3nxDWy53k3BgQftQap-1">
          <mxGeometry width="50" height="50" relative="1" as="geometry">
            <mxPoint x="306.19999999999936" y="85.09999999999991" as="sourcePoint" />
            <mxPoint x="720" y="20" as="targetPoint" />
            <Array as="points">
              <mxPoint x="276" y="20" />
              <mxPoint x="685" y="20" />
            </Array>
          </mxGeometry>
        </mxCell>
        <mxCell id="XHQlC-V_Jws_UmB_GzIY-39" value="Sim" style="edgeLabel;html=1;align=center;verticalAlign=middle;resizable=0;points=[];" connectable="0" vertex="1" parent="XHQlC-V_Jws_UmB_GzIY-38">
          <mxGeometry x="0.1067" y="-1" relative="1" as="geometry">
            <mxPoint as="offset" />
          </mxGeometry>
        </mxCell>
        <mxCell id="XHQlC-V_Jws_UmB_GzIY-77" value="&lt;font color=&quot;#00cc00&quot;&gt;Inicio&lt;/font&gt;" style="text;html=1;align=center;verticalAlign=middle;resizable=0;points=[];autosize=1;strokeColor=none;fillColor=none;" vertex="1" parent="QcYheAJvlHMiwgrauYPP-5">
          <mxGeometry x="100" y="125" width="50" height="30" as="geometry" />
        </mxCell>
        <mxCell id="NOd3RORWe2ZAU6HiwM3_-42" value="" style="shape=cross;whiteSpace=wrap;html=1;size=0;rotation=-45;" vertex="1" parent="QcYheAJvlHMiwgrauYPP-5">
          <mxGeometry x="1151" y="89.19" width="20" height="20" as="geometry" />
        </mxCell>
        <mxCell id="NOd3RORWe2ZAU6HiwM3_-47" value="" style="endArrow=classic;html=1;rounded=0;exitX=0.5;exitY=1;exitDx=0;exitDy=0;entryX=0.5;entryY=0;entryDx=0;entryDy=0;" edge="1" parent="QcYheAJvlHMiwgrauYPP-5" source="aA3nxDWy53k3BgQftQap-6" target="aA3nxDWy53k3BgQftQap-44">
          <mxGeometry width="50" height="50" relative="1" as="geometry">
            <mxPoint x="1160" y="120" as="sourcePoint" />
            <mxPoint x="1160" y="160" as="targetPoint" />
            <Array as="points" />
          </mxGeometry>
        </mxCell>
        <mxCell id="XHQlC-V_Jws_UmB_GzIY-79" value="Nao" style="edgeLabel;html=1;align=center;verticalAlign=middle;resizable=0;points=[];" vertex="1" connectable="0" parent="NOd3RORWe2ZAU6HiwM3_-47">
          <mxGeometry x="0.0699" y="2" relative="1" as="geometry">
            <mxPoint x="-3" as="offset" />
          </mxGeometry>
        </mxCell>
        <mxCell id="XHQlC-V_Jws_UmB_GzIY-42" value="Cadastro?" style="text;html=1;align=center;verticalAlign=middle;resizable=0;points=[];autosize=1;strokeColor=none;fillColor=none;" vertex="1" parent="QcYheAJvlHMiwgrauYPP-5">
          <mxGeometry x="180.49999999999997" y="69.19" width="80" height="30" as="geometry" />
        </mxCell>
        <mxCell id="XHQlC-V_Jws_UmB_GzIY-111" value="" style="ellipse;whiteSpace=wrap;html=1;aspect=fixed;strokeColor=#FF9999;" vertex="1" parent="QcYheAJvlHMiwgrauYPP-5">
          <mxGeometry x="1610" y="71.69" width="55" height="55" as="geometry" />
        </mxCell>
        <mxCell id="XHQlC-V_Jws_UmB_GzIY-112" value="&lt;font color=&quot;#ff9999&quot;&gt;Fim&lt;/font&gt;" style="text;html=1;align=center;verticalAlign=middle;resizable=0;points=[];autosize=1;strokeColor=none;fillColor=none;" vertex="1" parent="QcYheAJvlHMiwgrauYPP-5">
          <mxGeometry x="1617.5" y="40" width="40" height="30" as="geometry" />
        </mxCell>
        <mxCell id="XHQlC-V_Jws_UmB_GzIY-118" value="" style="shape=actor;whiteSpace=wrap;html=1;" vertex="1" parent="QcYheAJvlHMiwgrauYPP-5">
          <mxGeometry x="450" y="45" width="20" height="20" as="geometry" />
        </mxCell>
        <mxCell id="XHQlC-V_Jws_UmB_GzIY-153" value="" style="shape=actor;whiteSpace=wrap;html=1;" vertex="1" parent="QcYheAJvlHMiwgrauYPP-5">
          <mxGeometry x="620" y="45" width="20" height="20" as="geometry" />
        </mxCell>
        <mxCell id="aA3nxDWy53k3BgQftQap-56" value="" style="shape=actor;whiteSpace=wrap;html=1;" vertex="1" parent="QcYheAJvlHMiwgrauYPP-5">
          <mxGeometry x="800" y="45" width="20" height="20" as="geometry" />
        </mxCell>
        <mxCell id="aA3nxDWy53k3BgQftQap-57" value="" style="shape=actor;whiteSpace=wrap;html=1;" vertex="1" parent="QcYheAJvlHMiwgrauYPP-5">
          <mxGeometry x="960" y="45" width="20" height="20" as="geometry" />
        </mxCell>
        <mxCell id="aA3nxDWy53k3BgQftQap-58" value="" style="shape=actor;whiteSpace=wrap;html=1;" vertex="1" parent="QcYheAJvlHMiwgrauYPP-5">
          <mxGeometry x="1101" y="135" width="20" height="20" as="geometry" />
        </mxCell>
        <mxCell id="G0I-At-CtuhnhPBTe-EC-24" value="" style="html=1;verticalLabelPosition=bottom;align=center;labelBackgroundColor=#ffffff;verticalAlign=top;strokeWidth=2;strokeColor=#0080F0;shadow=0;dashed=0;shape=mxgraph.ios7.icons.settings;" vertex="1" parent="QcYheAJvlHMiwgrauYPP-5">
          <mxGeometry x="1300" y="40" width="20" height="20.31" as="geometry" />
        </mxCell>
        <mxCell id="G0I-At-CtuhnhPBTe-EC-31" value="Recebimento" style="rounded=1;whiteSpace=wrap;html=1;" vertex="1" parent="QcYheAJvlHMiwgrauYPP-5">
          <mxGeometry x="1450" y="69.19" width="120" height="60" as="geometry" />
        </mxCell>
        <mxCell id="G0I-At-CtuhnhPBTe-EC-33" value="" style="html=1;verticalLabelPosition=bottom;align=center;labelBackgroundColor=#ffffff;verticalAlign=top;strokeWidth=2;strokeColor=#0080F0;shadow=0;dashed=0;shape=mxgraph.ios7.icons.settings;" vertex="1" parent="QcYheAJvlHMiwgrauYPP-5">
          <mxGeometry x="1450" y="40" width="20" height="20.31" as="geometry" />
        </mxCell>
        <mxCell id="XHQlC-V_Jws_UmB_GzIY-165" value="" style="endArrow=classic;html=1;rounded=0;entryX=0;entryY=0.5;entryDx=0;entryDy=0;exitX=1;exitY=0.5;exitDx=0;exitDy=0;" edge="1" parent="QcYheAJvlHMiwgrauYPP-5" source="G0I-At-CtuhnhPBTe-EC-31" target="XHQlC-V_Jws_UmB_GzIY-111">
          <mxGeometry width="50" height="50" relative="1" as="geometry">
            <mxPoint x="1560" y="99" as="sourcePoint" />
            <mxPoint x="1620" y="55" as="targetPoint" />
          </mxGeometry>
        </mxCell>
        <mxCell id="QcYheAJvlHMiwgrauYPP-6" value="Comprador" style="swimlane;startSize=20;horizontal=0;html=1;strokeColor=#000000;" vertex="1" parent="QcYheAJvlHMiwgrauYPP-5">
          <mxGeometry y="340" width="1690" height="409" as="geometry" />
        </mxCell>
        <mxCell id="NOd3RORWe2ZAU6HiwM3_-9" value="Fazer cadastro (Nome, CPF, Telefone, Endereço, Senha, Email)" style="rounded=1;whiteSpace=wrap;html=1;" vertex="1" parent="QcYheAJvlHMiwgrauYPP-6">
          <mxGeometry x="215.5" y="112.5" width="120" height="55" as="geometry" />
        </mxCell>
        <mxCell id="NOd3RORWe2ZAU6HiwM3_-15" value="" style="endArrow=classic;html=1;rounded=0;exitX=1;exitY=0.5;exitDx=0;exitDy=0;entryX=0;entryY=0.5;entryDx=0;entryDy=0;" edge="1" parent="QcYheAJvlHMiwgrauYPP-6" source="NOd3RORWe2ZAU6HiwM3_-9" target="NOd3RORWe2ZAU6HiwM3_-16">
          <mxGeometry width="50" height="50" relative="1" as="geometry">
            <mxPoint x="395.5" y="170" as="sourcePoint" />
            <mxPoint x="405.5" y="140" as="targetPoint" />
          </mxGeometry>
        </mxCell>
        <mxCell id="NOd3RORWe2ZAU6HiwM3_-16" value="Realizar Login(Email e Senha)" style="rounded=1;whiteSpace=wrap;html=1;" vertex="1" parent="QcYheAJvlHMiwgrauYPP-6">
          <mxGeometry x="365.5" y="110" width="120" height="60" as="geometry" />
        </mxCell>
        <mxCell id="sDPe8l35opI0_8zUpnqD-9" value="Buscar evento pelo nome" style="rounded=1;whiteSpace=wrap;html=1;" vertex="1" parent="QcYheAJvlHMiwgrauYPP-6">
          <mxGeometry x="545.5" y="190" width="120" height="60" as="geometry" />
        </mxCell>
        <mxCell id="sDPe8l35opI0_8zUpnqD-8" value="Filtrar eventos" style="rounded=1;whiteSpace=wrap;html=1;" vertex="1" parent="QcYheAJvlHMiwgrauYPP-6">
          <mxGeometry x="545.5" y="50" width="120" height="60" as="geometry" />
        </mxCell>
        <mxCell id="sDPe8l35opI0_8zUpnqD-10" value="Analisar ingressos Diponíveis" style="rounded=1;whiteSpace=wrap;html=1;" vertex="1" parent="QcYheAJvlHMiwgrauYPP-6">
          <mxGeometry x="880" y="52.5" width="120" height="60" as="geometry" />
        </mxCell>
        <mxCell id="sDPe8l35opI0_8zUpnqD-11" value="Escolher ingresso" style="rounded=1;whiteSpace=wrap;html=1;" vertex="1" parent="QcYheAJvlHMiwgrauYPP-6">
          <mxGeometry x="1071" y="52.5" width="120" height="60" as="geometry" />
        </mxCell>
        <mxCell id="G0I-At-CtuhnhPBTe-EC-36" style="edgeStyle=orthogonalEdgeStyle;rounded=0;orthogonalLoop=1;jettySize=auto;html=1;exitX=1;exitY=0.5;exitDx=0;exitDy=0;entryX=0;entryY=0.5;entryDx=0;entryDy=0;" edge="1" parent="QcYheAJvlHMiwgrauYPP-6" source="sDPe8l35opI0_8zUpnqD-12" target="G0I-At-CtuhnhPBTe-EC-32">
          <mxGeometry relative="1" as="geometry" />
        </mxCell>
        <mxCell id="sDPe8l35opI0_8zUpnqD-12" value="Pagar ingresso&amp;nbsp;" style="rounded=1;whiteSpace=wrap;html=1;" vertex="1" parent="QcYheAJvlHMiwgrauYPP-6">
          <mxGeometry x="1290" y="52" width="120" height="60" as="geometry" />
        </mxCell>
        <mxCell id="sDPe8l35opI0_8zUpnqD-21" value="" style="edgeStyle=orthogonalEdgeStyle;rounded=0;orthogonalLoop=1;jettySize=auto;html=1;" edge="1" parent="QcYheAJvlHMiwgrauYPP-6" source="sDPe8l35opI0_8zUpnqD-16" target="sDPe8l35opI0_8zUpnqD-10">
          <mxGeometry relative="1" as="geometry">
            <Array as="points">
              <mxPoint x="930" y="155" />
            </Array>
          </mxGeometry>
        </mxCell>
        <mxCell id="XHQlC-V_Jws_UmB_GzIY-76" value="Sim&lt;br&gt;" style="edgeLabel;html=1;align=center;verticalAlign=middle;resizable=0;points=[];" vertex="1" connectable="0" parent="sDPe8l35opI0_8zUpnqD-21">
          <mxGeometry x="0.708" y="-10" relative="1" as="geometry">
            <mxPoint x="-10" y="-2" as="offset" />
          </mxGeometry>
        </mxCell>
        <mxCell id="NOd3RORWe2ZAU6HiwM3_-26" style="edgeStyle=orthogonalEdgeStyle;rounded=0;orthogonalLoop=1;jettySize=auto;html=1;exitX=0.5;exitY=1;exitDx=0;exitDy=0;entryX=0.5;entryY=0;entryDx=0;entryDy=0;" edge="1" parent="QcYheAJvlHMiwgrauYPP-6" source="sDPe8l35opI0_8zUpnqD-16" target="sDPe8l35opI0_8zUpnqD-16">
          <mxGeometry relative="1" as="geometry">
            <mxPoint x="770.5" y="200" as="targetPoint" />
          </mxGeometry>
        </mxCell>
        <mxCell id="sDPe8l35opI0_8zUpnqD-16" value="" style="rhombus;whiteSpace=wrap;html=1;" vertex="1" parent="QcYheAJvlHMiwgrauYPP-6">
          <mxGeometry x="755.5" y="140" width="30" height="30" as="geometry" />
        </mxCell>
        <mxCell id="NOd3RORWe2ZAU6HiwM3_-24" value="" style="endArrow=classic;html=1;rounded=0;" edge="1" parent="QcYheAJvlHMiwgrauYPP-6">
          <mxGeometry width="50" height="50" relative="1" as="geometry">
            <mxPoint x="929.41" y="155" as="sourcePoint" />
            <mxPoint x="930" y="215" as="targetPoint" />
            <Array as="points" />
          </mxGeometry>
        </mxCell>
        <mxCell id="XHQlC-V_Jws_UmB_GzIY-73" value="Nao" style="edgeLabel;html=1;align=center;verticalAlign=middle;resizable=0;points=[];" connectable="0" vertex="1" parent="NOd3RORWe2ZAU6HiwM3_-24">
          <mxGeometry x="-0.1781" y="7" relative="1" as="geometry">
            <mxPoint x="-7" y="5" as="offset" />
          </mxGeometry>
        </mxCell>
        <mxCell id="NOd3RORWe2ZAU6HiwM3_-29" value="" style="shape=cross;whiteSpace=wrap;html=1;size=0;rotation=-45;" vertex="1" parent="QcYheAJvlHMiwgrauYPP-6">
          <mxGeometry x="760.5" y="145" width="20" height="20" as="geometry" />
        </mxCell>
        <mxCell id="XHQlC-V_Jws_UmB_GzIY-2" value="" style="ellipse;whiteSpace=wrap;html=1;aspect=fixed;strokeColor=#66B2FF;" vertex="1" parent="QcYheAJvlHMiwgrauYPP-6">
          <mxGeometry x="902.5" y="215" width="55" height="55" as="geometry" />
        </mxCell>
        <mxCell id="XHQlC-V_Jws_UmB_GzIY-3" value="&lt;font color=&quot;#66b2ff&quot;&gt;Fim parcial&lt;/font&gt;" style="text;html=1;align=center;verticalAlign=middle;resizable=0;points=[];autosize=1;strokeColor=none;fillColor=none;" vertex="1" parent="QcYheAJvlHMiwgrauYPP-6">
          <mxGeometry x="890" y="270" width="80" height="30" as="geometry" />
        </mxCell>
        <mxCell id="XHQlC-V_Jws_UmB_GzIY-5" value="" style="endArrow=classic;html=1;rounded=0;entryX=0;entryY=0.5;entryDx=0;entryDy=0;" edge="1" parent="QcYheAJvlHMiwgrauYPP-6" target="XHQlC-V_Jws_UmB_GzIY-7">
          <mxGeometry width="50" height="50" relative="1" as="geometry">
            <mxPoint x="485.5" y="140" as="sourcePoint" />
            <mxPoint x="535.5" y="90" as="targetPoint" />
          </mxGeometry>
        </mxCell>
        <mxCell id="XHQlC-V_Jws_UmB_GzIY-7" value="" style="rhombus;whiteSpace=wrap;html=1;" vertex="1" parent="QcYheAJvlHMiwgrauYPP-6">
          <mxGeometry x="515.5" y="125" width="30" height="30" as="geometry" />
        </mxCell>
        <mxCell id="XHQlC-V_Jws_UmB_GzIY-26" value="" style="edgeStyle=orthogonalEdgeStyle;rounded=0;orthogonalLoop=1;jettySize=auto;html=1;exitX=1;exitY=0.5;exitDx=0;exitDy=0;entryX=0.497;entryY=-0.037;entryDx=0;entryDy=0;entryPerimeter=0;" edge="1" parent="QcYheAJvlHMiwgrauYPP-6" source="XHQlC-V_Jws_UmB_GzIY-7" target="sDPe8l35opI0_8zUpnqD-9">
          <mxGeometry relative="1" as="geometry">
            <mxPoint x="531.5142705707608" y="154.1278650529705" as="sourcePoint" />
            <mxPoint x="605.5" y="180" as="targetPoint" />
            <Array as="points">
              <mxPoint x="605.5" y="140" />
            </Array>
          </mxGeometry>
        </mxCell>
        <mxCell id="aA3nxDWy53k3BgQftQap-34" value="" style="endArrow=classic;html=1;rounded=0;entryX=0;entryY=0.5;entryDx=0;entryDy=0;exitX=1;exitY=0.5;exitDx=0;exitDy=0;" edge="1" parent="QcYheAJvlHMiwgrauYPP-6" source="sDPe8l35opI0_8zUpnqD-10" target="sDPe8l35opI0_8zUpnqD-11">
          <mxGeometry relative="1" as="geometry">
            <mxPoint x="990" y="85" as="sourcePoint" />
            <mxPoint x="975.5" y="85" as="targetPoint" />
          </mxGeometry>
        </mxCell>
        <mxCell id="XHQlC-V_Jws_UmB_GzIY-23" value="" style="endArrow=classic;html=1;rounded=0;entryX=0;entryY=0.5;entryDx=0;entryDy=0;exitX=1;exitY=0.5;exitDx=0;exitDy=0;" edge="1" parent="QcYheAJvlHMiwgrauYPP-6" source="sDPe8l35opI0_8zUpnqD-11" target="sDPe8l35opI0_8zUpnqD-12">
          <mxGeometry relative="1" as="geometry">
            <mxPoint x="1095.5" y="84.41" as="sourcePoint" />
            <mxPoint x="1290" y="84.91" as="targetPoint" />
          </mxGeometry>
        </mxCell>
        <mxCell id="NOd3RORWe2ZAU6HiwM3_-37" value="" style="shape=cross;whiteSpace=wrap;html=1;size=0;" vertex="1" parent="QcYheAJvlHMiwgrauYPP-6">
          <mxGeometry x="520.5" y="130" width="20" height="20" as="geometry" />
        </mxCell>
        <mxCell id="XHQlC-V_Jws_UmB_GzIY-28" value="" style="endArrow=classic;html=1;rounded=0;entryX=0.5;entryY=1;entryDx=0;entryDy=0;" edge="1" parent="QcYheAJvlHMiwgrauYPP-6" target="sDPe8l35opI0_8zUpnqD-8">
          <mxGeometry width="50" height="50" relative="1" as="geometry">
            <mxPoint x="605.5" y="140" as="sourcePoint" />
            <mxPoint x="655.5" y="90" as="targetPoint" />
          </mxGeometry>
        </mxCell>
        <mxCell id="NOd3RORWe2ZAU6HiwM3_-38" value="" style="endArrow=classic;html=1;rounded=0;exitX=1;exitY=0.5;exitDx=0;exitDy=0;entryX=0.5;entryY=0;entryDx=0;entryDy=0;" edge="1" parent="QcYheAJvlHMiwgrauYPP-6" source="sDPe8l35opI0_8zUpnqD-8" target="sDPe8l35opI0_8zUpnqD-16">
          <mxGeometry width="50" height="50" relative="1" as="geometry">
            <mxPoint x="705.5" y="110" as="sourcePoint" />
            <mxPoint x="755.5" y="155" as="targetPoint" />
            <Array as="points">
              <mxPoint x="770.5" y="80" />
            </Array>
          </mxGeometry>
        </mxCell>
        <mxCell id="NOd3RORWe2ZAU6HiwM3_-39" value="" style="endArrow=classic;html=1;rounded=0;exitX=1;exitY=0.5;exitDx=0;exitDy=0;entryX=0.5;entryY=1;entryDx=0;entryDy=0;" edge="1" parent="QcYheAJvlHMiwgrauYPP-6" source="sDPe8l35opI0_8zUpnqD-9" target="sDPe8l35opI0_8zUpnqD-16">
          <mxGeometry width="50" height="50" relative="1" as="geometry">
            <mxPoint x="705.5" y="250" as="sourcePoint" />
            <mxPoint x="715.5" y="150" as="targetPoint" />
            <Array as="points">
              <mxPoint x="770.5" y="220" />
            </Array>
          </mxGeometry>
        </mxCell>
        <mxCell id="XHQlC-V_Jws_UmB_GzIY-72" value="Encontrou Inrgressos?" style="text;html=1;align=center;verticalAlign=middle;resizable=0;points=[];autosize=1;strokeColor=none;fillColor=none;" vertex="1" parent="QcYheAJvlHMiwgrauYPP-6">
          <mxGeometry x="785.5" y="130" width="140" height="30" as="geometry" />
        </mxCell>
        <mxCell id="XHQlC-V_Jws_UmB_GzIY-119" value="" style="shape=actor;whiteSpace=wrap;html=1;" vertex="1" parent="QcYheAJvlHMiwgrauYPP-6">
          <mxGeometry x="215.5" y="85" width="20" height="20" as="geometry" />
        </mxCell>
        <mxCell id="XHQlC-V_Jws_UmB_GzIY-120" value="" style="shape=actor;whiteSpace=wrap;html=1;" vertex="1" parent="QcYheAJvlHMiwgrauYPP-6">
          <mxGeometry x="365.5" y="85" width="20" height="20" as="geometry" />
        </mxCell>
        <mxCell id="XHQlC-V_Jws_UmB_GzIY-154" value="" style="shape=actor;whiteSpace=wrap;html=1;" vertex="1" parent="QcYheAJvlHMiwgrauYPP-6">
          <mxGeometry x="545.5" y="165" width="20" height="20" as="geometry" />
        </mxCell>
        <mxCell id="XHQlC-V_Jws_UmB_GzIY-158" value="" style="shape=actor;whiteSpace=wrap;html=1;" vertex="1" parent="QcYheAJvlHMiwgrauYPP-6">
          <mxGeometry x="1071" y="23" width="20" height="20" as="geometry" />
        </mxCell>
        <mxCell id="G0I-At-CtuhnhPBTe-EC-27" value="" style="shape=actor;whiteSpace=wrap;html=1;" vertex="1" parent="QcYheAJvlHMiwgrauYPP-6">
          <mxGeometry x="545.5" y="16" width="20" height="20" as="geometry" />
        </mxCell>
        <mxCell id="XHQlC-V_Jws_UmB_GzIY-161" value="" style="shape=actor;whiteSpace=wrap;html=1;" vertex="1" parent="QcYheAJvlHMiwgrauYPP-6">
          <mxGeometry x="1300" y="23" width="20" height="20" as="geometry" />
        </mxCell>
        <mxCell id="G0I-At-CtuhnhPBTe-EC-30" value="" style="shape=image;html=1;verticalAlign=top;verticalLabelPosition=bottom;labelBackgroundColor=#ffffff;imageAspect=0;aspect=fixed;image=https://cdn1.iconfinder.com/data/icons/hawcons/32/700015-icon-27-one-finger-click-128.png;direction=south;" vertex="1" parent="QcYheAJvlHMiwgrauYPP-6">
          <mxGeometry x="868.5" y="18" width="34" height="34" as="geometry" />
        </mxCell>
        <mxCell id="G0I-At-CtuhnhPBTe-EC-32" value="Comissão de 5% para a paltaforma" style="rounded=1;whiteSpace=wrap;html=1;" vertex="1" parent="QcYheAJvlHMiwgrauYPP-6">
          <mxGeometry x="1460" y="52" width="120" height="60" as="geometry" />
        </mxCell>
        <mxCell id="G0I-At-CtuhnhPBTe-EC-34" value="" style="html=1;verticalLabelPosition=bottom;align=center;labelBackgroundColor=#ffffff;verticalAlign=top;strokeWidth=2;strokeColor=#0080F0;shadow=0;dashed=0;shape=mxgraph.ios7.icons.settings;" vertex="1" parent="QcYheAJvlHMiwgrauYPP-6">
          <mxGeometry x="1470" y="23" width="20" height="20.31" as="geometry" />
        </mxCell>
        <mxCell id="NOd3RORWe2ZAU6HiwM3_-8" value="" style="endArrow=classic;html=1;rounded=0;entryX=0.5;entryY=0;entryDx=0;entryDy=0;exitX=0.5;exitY=1;exitDx=0;exitDy=0;" edge="1" parent="QcYheAJvlHMiwgrauYPP-5" source="sDPe8l35opI0_8zUpnqD-15" target="NOd3RORWe2ZAU6HiwM3_-9">
          <mxGeometry width="50" height="50" relative="1" as="geometry">
            <mxPoint x="274.91" y="125" as="sourcePoint" />
            <mxPoint x="274.91" y="340" as="targetPoint" />
          </mxGeometry>
        </mxCell>
        <mxCell id="XHQlC-V_Jws_UmB_GzIY-35" value="Nao" style="edgeLabel;html=1;align=center;verticalAlign=middle;resizable=0;points=[];" connectable="0" vertex="1" parent="NOd3RORWe2ZAU6HiwM3_-8">
          <mxGeometry x="-0.3526" y="-2" relative="1" as="geometry">
            <mxPoint as="offset" />
          </mxGeometry>
        </mxCell>
        <mxCell id="aA3nxDWy53k3BgQftQap-55" value="" style="endArrow=classic;html=1;rounded=0;entryX=0.5;entryY=1;entryDx=0;entryDy=0;exitX=1;exitY=0.5;exitDx=0;exitDy=0;" edge="1" parent="QcYheAJvlHMiwgrauYPP-5" source="G0I-At-CtuhnhPBTe-EC-32" target="XHQlC-V_Jws_UmB_GzIY-111">
          <mxGeometry width="50" height="50" relative="1" as="geometry">
            <mxPoint x="1410" y="315" as="sourcePoint" />
            <mxPoint x="1530" y="315" as="targetPoint" />
            <Array as="points">
              <mxPoint x="1638" y="422" />
              <mxPoint x="1638" y="332" />
            </Array>
          </mxGeometry>
        </mxCell>
        <mxCell id="aA3nxDWy53k3BgQftQap-61" value="&lt;font size=&quot;1&quot; style=&quot;&quot;&gt;&lt;b style=&quot;font-size: 13px;&quot;&gt;Vendedor&lt;/b&gt;&lt;/font&gt;" style="text;html=1;align=center;verticalAlign=middle;resizable=0;points=[];autosize=1;strokeColor=none;fillColor=none;rotation=-90;" vertex="1" parent="QcYheAJvlHMiwgrauYPP-5">
          <mxGeometry x="-30" y="170.31" width="80" height="30" as="geometry" />
        </mxCell>
        <mxCell id="G0I-At-CtuhnhPBTe-EC-40" value="" style="endArrow=classic;html=1;rounded=0;entryX=0.5;entryY=0;entryDx=0;entryDy=0;exitX=1;exitY=0.5;exitDx=0;exitDy=0;" edge="1" parent="QcYheAJvlHMiwgrauYPP-5" source="sDPe8l35opI0_8zUpnqD-15" target="NOd3RORWe2ZAU6HiwM3_-16">
          <mxGeometry width="50" height="50" relative="1" as="geometry">
            <mxPoint x="330" y="180" as="sourcePoint" />
            <mxPoint x="380" y="130" as="targetPoint" />
          </mxGeometry>
        </mxCell>
        <mxCell id="XHQlC-V_Jws_UmB_GzIY-173" value="Sim&lt;br&gt;" style="edgeLabel;html=1;align=center;verticalAlign=middle;resizable=0;points=[];" vertex="1" connectable="0" parent="G0I-At-CtuhnhPBTe-EC-40">
          <mxGeometry x="0.1359" y="3" relative="1" as="geometry">
            <mxPoint as="offset" />
          </mxGeometry>
        </mxCell>
        <mxCell id="XHQlC-V_Jws_UmB_GzIY-168" value="" style="rounded=0;whiteSpace=wrap;html=1;direction=south;" vertex="1" parent="1">
          <mxGeometry x="50" y="-660" width="60" height="750" as="geometry" />
        </mxCell>
        <mxCell id="aA3nxDWy53k3BgQftQap-62" value="&lt;font style=&quot;font-size: 16px;&quot;&gt;&lt;b&gt;TICKETRADE&lt;/b&gt;&lt;/font&gt;" style="text;html=1;align=center;verticalAlign=middle;resizable=0;points=[];autosize=1;strokeColor=none;fillColor=none;rotation=-90;" vertex="1" parent="1">
          <mxGeometry x="15" y="-350" width="130" height="30" as="geometry" />
        </mxCell>
      </root>
    </mxGraphModel>
  </diagram>
</mxfile>
